<?xml version="1.0" standalone="no"?>
<!DOCTYPE svg PUBLIC "-//W3C//DTD SVG 20010904//EN"
 "http://www.w3.org/TR/2001/REC-SVG-20010904/DTD/svg10.dtd">
<svg version="1.0" xmlns="http://www.w3.org/2000/svg"
 width="416.000000pt" height="416.000000pt" viewBox="0 0 416.000000 416.000000"
 preserveAspectRatio="xMidYMid meet">

<g transform="translate(0.000000,416.000000) scale(0.100000,-0.100000)"
fill="#000000" stroke="none">
<path d="M1868 2937 l-307 -182 -1 -215 0 -216 337 -200 337 -201 93 56 c51
31 93 58 93 61 0 3 -149 93 -330 200 l-330 195 2 105 3 104 205 123 c113 67
210 121 216 120 6 -1 106 -58 222 -127 l211 -125 0 -57 1 -57 100 -60 100 -59
0 171 0 172 -313 188 c-172 103 -317 187 -322 187 -6 0 -148 -82 -317 -183z"/>
<path d="M2056 2610 c-43 -26 -82 -52 -87 -57 -5 -5 129 -91 319 -204 l327
-195 3 -105 3 -105 -202 -119 c-111 -66 -208 -121 -215 -123 -7 -2 -110 54
-228 125 l-215 128 -1 57 0 56 -92 54 c-51 29 -96 55 -100 56 -4 2 -8 -73 -8
-166 l0 -171 313 -187 c171 -102 317 -187 323 -187 6 0 149 82 318 182 l306
183 0 217 0 216 -333 198 c-183 108 -338 197 -343 196 -5 0 -44 -22 -88 -49z"/>
<path d="M1610 1293 c-30 -11 -50 -37 -50 -63 0 -34 19 -51 79 -70 25 -8 45
-19 44 -25 -4 -14 -68 -18 -92 -6 -16 9 -21 7 -27 -11 -10 -31 19 -48 83 -48
44 0 59 5 78 25 47 46 27 89 -50 109 -67 17 -68 41 -2 41 36 0 51 5 58 18 8
14 5 19 -16 27 -28 11 -80 12 -105 3z"/>
<path d="M1891 1283 c-54 -27 -75 -96 -46 -153 41 -79 179 -79 220 0 56 108
-60 209 -174 153z m109 -60 c34 -44 8 -103 -45 -103 -29 0 -53 20 -60 50 -8
33 27 80 60 80 14 0 32 -11 45 -27z"/>
<path d="M2170 1185 l0 -115 85 0 c84 0 85 0 85 25 0 24 -3 25 -55 25 l-55 0
0 90 0 90 -30 0 -30 0 0 -115z"/>
<path d="M2430 1185 l0 -115 30 0 30 0 0 115 0 115 -30 0 -30 0 0 -115z"/>
<path d="M2600 1185 l0 -115 65 0 c114 0 165 37 165 118 0 77 -57 112 -182
112 l-48 0 0 -115z m133 54 c28 -15 37 -28 37 -56 0 -34 -34 -63 -75 -63 l-35
0 0 58 c0 32 3 62 7 65 10 11 42 8 66 -4z"/>
</g>
</svg>
