<?xml version="1.0" standalone="no"?>
<!DOCTYPE svg PUBLIC "-//W3C//DTD SVG 20010904//EN"
 "http://www.w3.org/TR/2001/REC-SVG-20010904/DTD/svg10.dtd">
<svg version="1.0" xmlns="http://www.w3.org/2000/svg"
 width="1191.000000pt" height="473.000000pt" viewBox="0 0 1191.000000 473.000000"
 preserveAspectRatio="xMidYMid meet">

<g transform="translate(0.000000,473.000000) scale(0.100000,-0.100000)"
fill="#000000" stroke="none">
<path d="M2560 3929 c-119 -13 -216 -56 -292 -127 -89 -83 -128 -200 -107
-316 14 -79 38 -123 92 -173 76 -70 175 -109 432 -172 159 -39 230 -93 230
-176 0 -55 -26 -92 -91 -125 -42 -22 -61 -25 -149 -25 -107 0 -171 20 -224 68
-31 29 -61 94 -61 135 l0 32 -141 0 -142 0 7 -60 c28 -248 234 -399 544 -400
242 0 419 85 494 238 28 57 34 79 36 154 5 117 -13 171 -83 247 -70 75 -141
107 -364 166 -199 52 -264 77 -291 113 -39 49 -15 135 49 174 31 20 49 23 136
23 88 0 105 -3 145 -25 49 -28 90 -87 90 -132 l0 -28 140 0 140 0 0 33 c0 88
-62 213 -135 270 -103 82 -289 125 -455 106z"/>
<path d="M4348 3929 c-206 -23 -378 -141 -466 -320 -51 -106 -71 -179 -78
-299 -18 -267 89 -503 282 -626 178 -114 449 -125 646 -26 100 49 202 153 251
252 106 215 106 484 1 700 -48 98 -160 211 -255 257 -109 54 -252 77 -381 62z
m204 -255 c54 -18 120 -72 153 -125 85 -134 97 -373 26 -524 -38 -82 -81 -129
-149 -162 -50 -25 -68 -28 -152 -28 -109 0 -161 19 -225 83 -84 84 -121 206
-113 379 10 201 86 329 225 379 52 18 179 18 235 -2z"/>
<path d="M5750 3260 l0 -640 455 0 455 0 0 120 0 120 -310 0 -310 0 0 520 0
520 -145 0 -145 0 0 -640z"/>
<path d="M7310 3260 l0 -640 145 0 145 0 0 640 0 640 -145 0 -145 0 0 -640z"/>
<path d="M8340 3260 l0 -640 323 0 c357 0 419 8 530 67 80 43 168 136 210 223
60 122 72 183 72 360 0 135 -3 165 -23 230 -66 209 -192 334 -388 384 -50 13
-124 16 -393 16 l-331 0 0 -640z m665 372 c110 -51 168 -145 184 -302 26 -242
-51 -407 -211 -455 -36 -10 -96 -15 -200 -15 l-148 0 0 401 0 401 163 -4 c143
-3 168 -6 212 -26z"/>
<path d="M9520 2760 l0 -140 140 0 140 0 0 140 0 140 -140 0 -140 0 0 -140z"/>
<path d="M7830 2755 l0 -135 140 0 140 0 0 135 0 135 -140 0 -140 0 0 -135z"/>
<path d="M6587 1852 l-267 -267 108 -108 107 -107 53 0 52 0 0 -53 0 -52 105
-105 105 -105 268 268 267 267 -265 265 -265 265 -268 -268z"/>
<path d="M6197 1462 l-107 -107 0 -53 0 -52 -53 0 -52 0 -105 -105 -105 -105
265 -265 265 -265 265 265 265 265 -113 113 c-107 108 -112 114 -112 155 l0
42 -42 0 c-41 0 -47 5 -153 110 l-110 110 -108 -108z"/>
</g>
</svg>
