<?xml version="1.0" standalone="no"?>
<!DOCTYPE svg PUBLIC "-//W3C//DTD SVG 20010904//EN"
 "http://www.w3.org/TR/2001/REC-SVG-20010904/DTD/svg10.dtd">
<svg version="1.0" xmlns="http://www.w3.org/2000/svg"
 width="640.000000pt" height="640.000000pt" viewBox="0 0 640.000000 640.000000"
 preserveAspectRatio="xMidYMid meet">

<g transform="translate(0.000000,640.000000) scale(0.100000,-0.100000)"
fill="#000000" stroke="none">
<path d="M2000 4475 l0 -215 110 0 110 0 0 105 0 105 435 0 435 0 0 -1155 0
-1155 110 0 110 0 0 1155 0 1155 435 0 435 0 0 -105 0 -105 110 0 110 0 0 215
0 215 -1200 0 -1200 0 0 -215z"/>
<path d="M2588 4241 c-113 -37 -181 -92 -220 -179 -18 -39 -19 -67 -16 -385 3
-332 4 -343 26 -392 32 -70 95 -131 162 -157 48 -19 80 -22 258 -26 l203 -4
-3 113 -3 114 -187 3 -187 2 -25 31 -26 31 2 301 3 301 34 23 c32 22 43 23
212 23 l179 0 0 110 0 110 -177 -1 c-144 0 -189 -4 -235 -18z"/>
<path d="M3400 4150 l0 -110 325 0 325 0 0 110 0 110 -325 0 -325 0 0 -110z"/>
<path d="M3407 3324 c-4 -4 -7 -56 -7 -116 l0 -108 188 0 c175 0 190 -1 210
-20 12 -11 24 -31 27 -43 3 -12 4 -155 3 -317 l-3 -295 -40 -20 c-36 -17 -58
-19 -212 -17 l-173 3 0 -112 0 -111 198 4 197 3 70 33 c81 38 140 90 166 147
17 36 19 69 18 375 0 296 -2 341 -18 387 -34 99 -95 161 -185 189 -54 16 -425
31 -439 18z"/>
<path d="M2350 2280 l0 -110 325 0 325 0 0 110 0 110 -325 0 -325 0 0 -110z"/>
<path d="M2059 1953 c-33 -28 -59 -78 -59 -114 0 -36 31 -88 65 -109 43 -26
108 -26 151 1 41 25 42 31 9 49 -20 10 -28 11 -37 2 -7 -7 -29 -12 -49 -12
-72 0 -103 87 -48 133 24 19 79 23 97 5 9 -9 17 -8 37 2 32 17 28 28 -15 52
-52 27 -112 24 -151 -9z"/>
<path d="M2354 1970 c-31 -13 -72 -66 -80 -105 -8 -44 25 -114 65 -138 39 -23
108 -22 149 3 81 50 80 179 -3 230 -33 21 -93 25 -131 10z m111 -75 c49 -48
16 -125 -54 -125 -48 0 -75 28 -75 77 0 68 80 98 129 48z"/>
<path d="M2604 1967 c-2 -7 -3 -67 -2 -133 l3 -119 33 -3 32 -3 1 63 0 63 29
-62 c16 -35 35 -63 42 -63 7 0 27 30 45 68 l31 67 1 -67 1 -68 30 0 30 0 0
135 0 135 -30 0 c-27 0 -33 -7 -69 -77 l-39 -78 -38 78 c-34 69 -41 77 -67 77
-15 0 -30 -6 -33 -13z"/>
<path d="M2940 1846 l0 -136 30 0 30 0 0 67 c0 75 6 74 41 -9 13 -32 30 -58
37 -58 7 0 27 29 43 65 17 36 32 65 34 65 2 0 3 -28 2 -62 l-1 -63 32 -3 33
-3 -3 133 -3 133 -30 0 c-27 0 -33 -6 -65 -72 -19 -40 -37 -72 -40 -72 -3 -1
-21 32 -41 72 -32 64 -39 72 -67 75 l-32 3 0 -135z"/>
<path d="M3280 1846 l0 -136 30 0 c27 0 30 3 30 30 0 29 2 30 46 30 39 0 51 5
81 35 32 32 35 40 30 77 -3 25 -15 51 -31 66 -21 22 -36 26 -105 30 l-81 5 0
-137z m148 47 c19 -36 -5 -63 -55 -63 -32 0 -33 2 -33 40 0 40 0 40 40 40 27
0 42 -5 48 -17z"/>
<path d="M3545 1850 c-36 -71 -65 -132 -65 -135 0 -3 15 -5 34 -5 26 0 36 5
41 20 6 17 15 20 75 20 59 0 68 -2 73 -20 4 -15 14 -20 41 -20 l35 0 -16 38
c-8 20 -37 81 -64 135 -67 133 -71 132 -154 -33z m107 -10 l17 -40 -39 0 -39
0 17 40 c9 22 19 40 22 40 3 0 13 -18 22 -40z"/>
<path d="M3820 1845 l0 -135 30 0 29 0 3 77 3 78 64 -78 c52 -63 69 -77 92
-77 l29 0 0 135 0 135 -30 0 -29 0 -3 -82 -3 -81 -63 81 c-54 70 -68 82 -93
82 l-29 0 0 -135z"/>
<path d="M4136 1928 c21 -29 46 -62 56 -74 13 -15 18 -36 18 -82 l0 -62 40 0
40 0 0 56 c0 51 4 62 48 122 70 97 68 92 24 92 -34 0 -42 -5 -71 -45 -18 -25
-36 -45 -41 -45 -5 0 -23 20 -41 45 -29 40 -37 45 -72 45 l-39 0 38 -52z"/>
</g>
</svg>
